#!OML:ASF I:\Actors\actors\Patient Classification 2\Patient 1\Session 1\actor1.ASF
:FULLY-SPECIFIED
:DEGREES
547
root -0.605202 18.5631 6.34734 -3.03585 -5.03406 -1.72869
lowerback 2.46473 0.815843 -1.6673
upperback -1.72525 1.04214 0.612196
thorax -3.19688 0.563263 1.50981
lowerneck -14.1121 -2.96682 -1.80966
upperneck 22.0059 -4.8127 4.4436
head 9.42233 -1.91493 1.2417
rclavicle -2.30839e-014 1.19271e-014
rhumerus -55.2722 -15.2483 -76.2469
rradius 43.6378
rwrist 9.34157
rhand -6.35281 -33.0349
rfingers 7.12502
rthumb 19.4932 -62.0778
lclavicle -2.30839e-014 1.19271e-014
lhumerus -51.2781 8.80811 83.7961
lradius 42.278
lwrist 13.6076
lhand -9.45364 -17.2853
lfingers 7.12502
lthumb 16.5097 12.0323
rfemur 13.0116 8.62583 16.4977
rtibia 3.18055e-014
rfoot -20.364 -12.2669
rtoes -0.0908902
lfemur 3.227 -5.58957 -14.0588
ltibia 21.1365
lfoot -25.2088 14.4615
ltoes -54.9703
548
root -0.609801 18.5672 6.32687 -2.94624 -5.22305 -1.75991
lowerback 2.41528 0.892786 -1.5395
upperback -1.71265 1.14982 0.588821
thorax -3.15697 0.613419 1.4092
lowerneck -14.0324 -2.98672 -1.82951
upperneck 22.0323 -4.82281 4.38353
head 9.41567 -1.9288 1.22414
rclavicle -9.06955e-015 7.95139e-015
rhumerus -54.6213 -14.8205 -76.3737
rradius 43.2717
rwrist 9.95825
rhand -6.98796 -33.7673
rfingers 7.12502
rthumb 18.8824 -62.8708
lclavicle -9.06955e-015 7.95139e-015
lhumerus -50.5995 8.32255 83.6372
lradius 41.925
lwrist 12.0929
lhand -8.93929 -17.9244
lfingers 7.12502
lthumb 17.0049 11.3512
rfemur 12.8055 8.80729 16.5378
rtibia -1.27222e-014
rfoot -20.2626 -12.3311
rtoes -0.417901
lfemur 3.13823 -5.69267 -14.0476
ltibia 21.1029
lfoot -25.2121 14.7462
ltoes -55.085
549
root -0.611402 18.5705 6.30932 -2.90691 -5.4809 -1.83345
lowerback 2.35514 0.992657 -1.33653
upperback -1.66463 1.29135 0.579285
thorax -3.07366 0.678542 1.27969
lowerneck -13.9118 -2.98693 -1.77368
upperneck 22.0379 -4.80031 4.2318
head 9.38845 -1.93217 1.16697
rclavicle 1.90833e-014 7.55382e-015
rhumerus -53.9194 -14.3786 -76.5363
rradius 42.92
rwrist 10.6071
rhand -7.73294 -34.6351
rfingers 7.12502
rthumb 18.1658 -63.8068
lclavicle 1.90833e-014 7.55382e-015
lhumerus -49.7464 8.14726 83.3164
lradius 41.3647
lwrist 10.3048
lhand -8.43401 -18.3118
lfingers 7.12502
lthumb 17.4912 10.9213
rfemur 12.6519 9.05945 16.6254
rtibia -4.77083e-015
rfoot -20.0981 -12.4524
rtoes -1.21376
lfemur 3.13562 -5.85215 -14.0323
ltibia 21.0737
lfoot -25.3276 15.0177
ltoes -54.9908
550
root -0.61199 18.5737 6.28897 -2.86252 -5.69499 -1.90022
lowerback 2.33601 1.07155 -1.15422
upperback -1.62922 1.40385 0.588355
thorax -3.02568 0.730364 1.18184
lowerneck -13.7686 -2.93127 -1.72243
upperneck 22.0728 -4.69745 4.071
head 9.36443 -1.8992 1.11781
rclavicle -9.44227e-016 -1.45113e-014
rhumerus -53.2457 -13.83 -76.6925
rradius 42.6512
rwrist 11.0054
rhand -8.3538 -35.0427
rfingers 7.12502
rthumb 17.5684 -64.2689
lclavicle -9.44227e-016 -1.45113e-014
lhumerus -48.8375 8.22369 82.9224
lradius 40.7246
lwrist 8.32551
lhand -8.08383 -18.5283
lfingers 7.12502
lthumb 17.8282 10.6744
rfemur 12.4819 9.26979 16.6942
rtibia 4.45278e-014
rfoot -19.9739 -12.5175
rtoes -1.44578
lfemur 3.09562 -6.02066 -14.0079
ltibia 21.0457
lfoot -25.5116 15.1386
ltoes -54.6041
551
root -0.611209 18.5755 6.27047 -2.87355 -5.89422 -1.94331
lowerback 2.29261 1.13783 -0.961875
upperback -1.54789 1.4993 0.57655
thorax -2.91476 0.772862 1.059
lowerneck -13.6548 -2.84925 -1.63876
upperneck 22.1605 -4.56547 3.90164
head 9.36269 -1.84956 1.06348
rclavicle 1.91827e-014 -1.17283e-014
rhumerus -52.4981 -13.454 -76.7517
rradius 42.2798
rwrist 11.4817
rhand -8.67696 -35.0285
rfingers 7.12502
rthumb 17.2574 -64.2823
lclavicle 1.91827e-014 -1.17283e-014
lhumerus -47.8995 8.35672 82.5388
lradius 40.1136
lwrist 6.29518
lhand -7.85672 -18.5723
lfingers 7.12502
lthumb 18.0467 10.6104
rfemur 12.3742 9.47089 16.7377
rtibia 1.74931e-014
rfoot -19.9014 -12.5699
rtoes -1.29524
lfemur 3.12817 -6.44487 -14.0897
ltibia 21.024
lfoot -25.8631 15.4848
ltoes -54.2321
552
root -0.616523 18.5787 6.24051 -2.84928 -5.89608 -1.98199
lowerback 2.36466 1.14499 -0.907855
upperback -1.50794 1.51035 0.579793
thorax -2.91312 0.777107 1.0305
lowerneck -13.5384 -2.81541 -1.61794
upperneck 22.2344 -4.51053 3.83489
head 9.36258 -1.83011 1.04539
rclavicle -1.90336e-014 1.92821e-014
rhumerus -51.7817 -13.2644 -76.7355
rradius 41.9869
rwrist 11.9413
rhand -8.68825 -35.0465
rfingers 7.12502
rthumb 17.2465 -64.3012
lclavicle -1.90336e-014 1.92821e-014
lhumerus -46.984 8.53704 82.1522
lradius 39.6019
lwrist 4.29676
lhand -7.56629 -18.6517
lfingers 7.12502
lthumb 18.3261 10.5051
rfemur 12.2425 9.46852 16.7961
rtibia 7.95139e-015
rfoot -19.8249 -12.6549
rtoes -1.2927
lfemur 3.02807 -6.65263 -14.0507
ltibia 21.0017
lfoot -25.9311 15.5995
ltoes -54.107
553
root -0.636009 18.5871 6.18175 -2.70571 -5.43364 -2.00561
lowerback 2.81293 1.00262 -1.16768
upperback -1.62189 1.30796 0.630229
thorax -3.28561 0.68475 1.22887
lowerneck -13.4437 -2.80539 -1.68144
upperneck 22.3318 -4.49834 3.88338
head 9.3811 -1.82445 1.07552
rclavicle -1.87603e-014 7.95139e-016
rhumerus -51.1742 -12.9807 -76.8001
rradius 41.9636
rwrist 11.9325
rhand -8.62164 -35.3213
rfingers 7.12502
rthumb 17.3106 -64.5704
lclavicle -1.87603e-014 7.95139e-016
lhumerus -46.1231 8.94569 81.6792
lradius 39.1685
lwrist 2.37102
lhand -7.24402 -18.8207
lfingers 7.12502
lthumb 18.6361 10.3066
rfemur 12.0008 8.98811 16.8679
rtibia -4.77083e-015
rfoot -19.7407 -12.6971
rtoes -1.02971
lfemur 2.53398 -6.04323 -13.6353
ltibia 20.9795
lfoot -25.1395 14.803
ltoes -54.2844
554
root -0.638553 18.5919 6.15216 -2.70046 -5.34469 -1.94552
lowerback 2.94143 0.964927 -1.20114
upperback -1.57663 1.25429 0.607796
thorax -3.30998 0.658338 1.22588
lowerneck -13.4613 -2.78416 -1.71227
upperneck 22.4413 -4.46139 3.8643
head 9.42169 -1.81014 1.07859
rclavicle -1.2424e-015 1.64991e-014
rhumerus -50.552 -12.5722 -76.9985
rradius 42.0952
rwrist 11.6096
rhand -8.63075 -35.6893
rfingers 7.12502
rthumb 17.3019 -64.9391
lclavicle -1.2424e-015 1.64991e-014
lhumerus -45.2255 9.6031 81.1611
lradius 38.7759
lwrist 0.678845
lhand -6.94267 -19.0444
lfingers 7.12502
lthumb 18.926 10.0549
rfemur 11.9029 8.90464 16.795
rtibia 4.77083e-015
rfoot -19.6918 -12.695
rtoes -0.763431
lfemur 2.4071 -6.14686 -13.687
ltibia 20.9668
lfoot -25.041 14.8661
ltoes -54.2721
555
root -0.641384 18.5971 6.12346 -2.65072 -5.26826 -1.88673
lowerback 3.01339 0.943057 -1.24037
upperback -1.52924 1.22231 0.595604
thorax -3.30125 0.642776 1.23648
lowerneck -13.4321 -2.78101 -1.70001
upperneck 22.4138 -4.42915 3.74532
head 9.40213 -1.80787 1.03987
rclavicle 4.33599e-015 -1.68967e-014
rhumerus -49.9538 -12.191 -77.2012
rradius 42.3196
rwrist 11.1971
rhand -8.64356 -35.8033
rfingers 7.12502
rthumb 17.2895 -65.0542
lclavicle 4.33599e-015 -1.68967e-014
lhumerus -44.3849 10.1778 80.795
lradius 38.5884
lwrist -0.455739
lhand -6.84738 -19.2061
lfingers 7.12502
lthumb 19.0176 9.88422
rfemur 11.7558 8.83039 16.7224
rtibia 1.90833e-014
rfoot -19.6494 -12.7334
rtoes -0.720436
lfemur 2.23503 -6.18218 -13.7162
ltibia 20.9554
lfoot -24.9259 14.8878
ltoes -54.3557
556
root -0.644925 18.6008 6.09629 -2.59635 -5.21494 -1.90305
lowerback 3.0794 0.940606 -1.20929
upperback -1.49676 1.22005 0.605177
thorax -3.30441 0.640895 1.22825
lowerneck -13.3639 -2.81375 -1.7548
upperneck 22.3821 -4.44477 3.67958
head 9.37817 -1.82832 1.02537
rclavicle 9.41742e-015 -1.78906e-015
rhumerus -49.4638 -11.7983 -77.4163
rradius 42.6792
rwrist 10.6949
rhand -8.58411 -35.702
rfingers 7.12502
rthumb 17.3467 -64.9479
lclavicle 9.41742e-015 -1.78906e-015
lhumerus -43.7024 10.496 80.6141
lradius 38.6995
lwrist -0.830976
lhand -7.03704 -19.3035
lfingers 7.12502
lthumb 18.8352 9.80458
rfemur 11.6054 8.77405 16.7392
rtibia 3.65764e-014
rfoot -19.5938 -12.7939
rtoes -0.708056
lfemur 2.07426 -6.2075 -13.6566
ltibia 20.9364
lfoot -24.7867 14.9144
ltoes -54.416
557
root -0.647051 18.6039 6.07015 -2.5593 -5.1461 -1.90662
lowerback 3.17356 0.925981 -1.17495
upperback -1.46004 1.20094 0.598519
thorax -3.31814 0.630397 1.20211
lowerneck -13.4104 -2.84129 -1.85204
upperneck 22.4317 -4.46333 3.68495
head 9.40723 -1.84326 1.04067
rclavicle -4.67144e-015 -7.35503e-015
rhumerus -49.0381 -11.3525 -77.7253
rradius 43.1652
rwrist 10.1312
rhand -8.44974 -35.6438
rfingers 7.12502
rthumb 17.4761 -64.8782
lclavicle -4.67144e-015 -7.35503e-015
lhumerus -43.0887 10.7158 80.5204
lradius 38.9886
lwrist -0.587393
lhand -7.35749 -19.442
lfingers 7.12502
lthumb 18.527 9.69569
rfemur 11.4762 8.70526 16.7339
rtibia 6.36111e-015
rfoot -19.5343 -12.8497
rtoes -0.607562
lfemur 1.92714 -6.20606 -13.6132
ltibia 20.9229
lfoot -24.6169 14.9458
ltoes -54.5707
558
root -0.647987 18.6074 6.04523 -2.52671 -5.01802 -1.88983
lowerback 3.3185 0.89693 -1.14343
upperback -1.44199 1.1614 0.573409
thorax -3.37886 0.609948 1.15891
lowerneck -13.4582 -2.83885 -1.87533
upperneck 22.4255 -4.44776 3.66286
head 9.41348 -1.8397 1.03827
rclavicle -2.80783e-015 -4.37326e-015
rhumerus -48.6932 -10.9261 -78.0869
rradius 43.7138
rwrist 9.53214
rhand -8.42146 -35.6555
rfingers 7.12502
rthumb 17.5033 -64.8875
lclavicle -2.80783e-015 -4.37326e-015
lhumerus -42.5611 10.7682 80.538
lradius 39.4317
lwrist 0.0889861
lhand -7.71131 -19.4426
lfingers 7.12502
lthumb 18.1866 9.72718
rfemur 11.3714 8.57944 16.6963
rtibia -9.54166e-015
rfoot -19.4676 -12.8774
rtoes -0.53689
lfemur 1.76963 -6.16622 -13.5827
ltibia 20.9189
lfoot -24.4603 14.8693
ltoes -54.6487
